<?xml version="1.0" encoding="UTF-8"?>
<svg viewBox="0 0 535 140" version="1.1" xmlns="http://www.w3.org/2000/svg" xmlns:xlink="http://www.w3.org/1999/xlink">
    <title>Acxiom Logo</title>
    <desc>Acxiom</desc>
    <style>
        .logo-gray {
            fill: #174167;
        }

        .logo-green {
            fill: #174167;
        }
    </style>
    <g stroke="none" stroke-width="1" fill="none" fill-rule="evenodd">
        <g transform="translate(2.000000, 2.000000)">
            <g>
                <g class="logo-gray">
                    <path d="M0.5,94.9 C0.5,80 7,70.7 23.4,68.2 C32.8,66.8 43.1,66.4 53.6,66 C53.6,54.2 48.4,48.3 35.5,48.3 C25.3,48.3 14.6,49.4 5.9,50.5 L4.4,37.2 C13.6,35.7 24.7,34.1 37.2,34.1 C56,34.1 71.4,39.2 71.4,60.9 L71.4,98.5 C71.4,104.1 71.2,109 70.7,114.1 C61.2,119.5 48.5,121.6 32.6,121.6 C9.5,121.5 0.5,112.4 0.5,94.9 Z M53.6,77.8 C46.1,78.1 37.4,78.2 30.4,79.9 C21.6,82 18.4,84.7 18.4,94.6 C18.4,105.3 24.3,107.9 35.2,107.9 C40.7,107.9 47.6,107.5 53,105 C53.4,101.6 53.5,97.4 53.5,93.6 L53.5,77.8 L53.6,77.8 Z" fill-rule="nonzero"></path>
                    <path d="M139.2,50.4 C134.5,49.5 129.4,48.6 124.4,48.6 C102,48.6 99.8,54.8 99.8,76.9 C99.8,97.8 100.7,106.6 124.5,106.6 C129.4,106.6 134.3,105.7 139.1,104.7 L140.7,118.5 C133.5,120.2 124.9,121.5 114.2,121.5 C85.8,121.5 81.2,100 81.2,76.9 C81.2,49 87.7,34 118.8,34 C127.8,34 134.7,35.3 140.4,37 L139.2,50.4 Z"></path>
                    <polygon points="232.1 120.3 210.9 120.3 190.3 89.6 170 120.3 150.1 120.3 180.9 76.2 152.4 35.1 173.2 35.1 191.8 62.9 210.3 35.1 229.7 35.1 201.2 75.9"></polygon>
                    <path d="M254.7,23.1 C246.1,23.1 243.7,20.4 243.7,12 C243.7,3.7 246.3,0.9 254.7,0.9 C263.2,0.9 265.7,3.6 265.7,12 C265.7,20.4 263.3,23.1 254.7,23.1 Z M245.6,120.3 L245.6,35.1 L263.9,35.1 L263.9,120.3 L245.6,120.3 Z" fill-rule="nonzero"></path>
                    <path d="M457,120.3 L438.8,120.3 L438.8,67.6 C438.8,54.8 435.7,48.3 422,48.3 C417.7,48.3 412.1,49.5 408.9,51.1 C408.5,54.5 408.4,58.7 408.4,62.5 L408.4,120.2 L390.3,120.2 L390.3,57 C390.3,51.4 390.5,46.5 391,41.4 C400,36.9 413.2,33.9 426.4,33.9 C436.2,33.9 443,35.9 447.5,39.3 C455.4,36.1 465.3,33.9 475,33.9 C501.6,33.9 505.6,48.4 505.6,65.6 L505.6,120.2 L487.4,120.2 L487.4,67.5 C487.4,54.7 484.3,48.2 470.6,48.2 C466.7,48.2 460.4,49.3 455.6,51.9 C456.7,56.1 457,60.7 457,65.5 L457,120.3 Z"></path>
                </g>
                <path d="M357.7,76.3 C357.1,69.3 355.5,62.4 352.8,55.6 C352.1,53.7 351.3,52 350.4,50.3 C350.8,49.8 351,49.2 351,48.5 C356.9,49 363,50.1 369.1,52 C371.2,55.5 372.9,59.4 374.1,63.4 C371.3,66.7 366.1,71.9 358.8,77.3 C358.4,76.9 358.1,76.6 357.7,76.3 Z M346.5,43.3 C347.7,43.4 348.9,44.1 349.8,45.2 C350.1,45.6 350.3,46 350.5,46.4 C356.2,46.9 361.8,47.9 367.2,49.3 C359.9,38.9 348.7,31.5 335.8,29.3 C338.4,31.9 342.5,36.7 346.5,43.3 Z M307.8,48.8 C308.3,49.3 308.8,49.9 309,50.7 C318.5,48 328,46.4 337.2,46 C339.2,45.9 341.2,45.9 343.1,45.9 C343.2,45.4 343.3,44.9 343.6,44.5 C337.5,34.8 331.2,29.1 331.1,29 L331.4,28.6 C330.1,28.5 328.8,28.4 327.5,28.4 C323.6,28.4 319.8,28.9 316.2,29.7 C315.5,30.8 310.8,37.4 307.8,48.8 Z M345.4,122 C350.9,119.8 355.9,116.7 360.2,112.8 C357.8,112.6 355.5,112.4 353.1,112.1 C352.2,113.3 351,114.1 349.8,114.3 C348.5,116.8 347,119.4 345.4,122 Z M353.6,83.5 C352.4,84.3 351.1,85.1 349.7,85.8 C339.5,91.6 328.6,95.5 317.2,97.4 C316.1,97.6 315.1,97.7 314,97.9 C314,98.1 314,98.4 313.9,98.6 C323.1,102.1 334.2,105.4 347,107.5 C347.9,106.2 349.2,105.4 350.4,105.3 C353,98.5 354.5,91.6 354.8,84.7 C354.3,84.3 353.9,83.9 353.6,83.5 Z M354.6,76 C354,69.6 352.4,63.3 349.9,56.9 C349.1,55 348.3,53.2 347.5,51.5 C346.4,51.4 345.2,50.7 344.3,49.6 C343.9,49.1 343.6,48.6 343.4,48.1 C330.4,47.9 318.6,50.2 309.3,52.9 C309.3,53.4 309.2,53.8 309.1,54.3 C308.6,56.2 307.3,57.6 305.9,58.2 C304.7,66.5 304.5,77.2 307,90 C310.4,90.2 313.1,92.5 313.9,95.7 C326,94 337.7,90.1 348.7,83.9 C350.1,83.1 351.4,82.3 352.7,81.5 C352.7,81.3 352.6,81.1 352.6,81 C352.2,78.7 353.1,76.7 354.6,76 Z M359.7,79.4 C359.7,79.5 359.8,79.7 359.8,79.8 C360.1,81.9 359.3,83.9 357.9,84.7 C357.9,85.6 357.8,86.6 357.7,87.5 C357.1,93.7 355.7,100 353.4,106.1 C354,106.7 354.3,107.5 354.3,108.4 C357.4,108.7 360.5,109 363.7,109.2 C371.4,100.6 376,89.3 376,76.9 C376,73.1 375.6,69.4 374.7,65.9 C371.7,69.3 366.7,74.3 359.7,79.4 Z M346.8,113.2 C346.3,112.6 346,111.8 345.9,111 C333.1,108.9 321.8,105.5 312.4,101.9 C311.8,102.6 311.1,103.2 310.4,103.7 C312.4,110.2 315,117.1 318.5,124.5 C321.4,125.1 324.5,125.3 327.6,125.3 C332.1,125.3 336.5,124.7 340.7,123.5 C343,120.2 345,116.7 346.8,113.2 Z" class="logo-green" fill-rule="nonzero"></path>
                <path d="M281.5,61.9 C286.1,47.9 296.9,36.7 310.7,31.5 C308.8,34.9 306.1,40.4 304.2,47.9 C302.5,48.4 301,49.9 300.5,51.9 C300.4,52.4 300.3,53 300.3,53.5 C291.6,56.7 285.1,60 281.5,61.9 Z M299.3,96.3 C290.6,92.1 284,87.9 279.7,85 C280.3,88.5 281.3,92 282.6,95.2 C288.2,96.1 293.8,96.6 299.2,96.7 C299.3,96.5 299.3,96.4 299.3,96.3 Z M306.7,104.8 C306.7,104.8 306.6,104.8 306.6,104.8 C303,104.8 300,102.2 299.4,98.8 C294.2,98.8 289,98.3 283.7,97.6 C289.5,110 300.5,119.6 313.9,123.5 C311,117.1 308.6,110.9 306.7,104.8 Z M303.3,90.8 C302.9,88.9 302.6,87 302.4,85.1 C301.1,75.6 301,66.5 302.3,57.8 C301.6,57.3 301.1,56.6 300.7,55.7 C290.4,59.4 283.2,63.4 280.7,64.9 C279.7,68.8 279.2,72.8 279.2,77 C279.2,78 279.2,79 279.3,80 C283.6,83.2 290.9,88 300.9,92.9 C301.5,92 302.3,91.3 303.3,90.8 Z" class="logo-gray" fill-rule="nonzero"></path>
            </g>
            <path d="M530.3,113.8 C530.3,114.9 530.1,115.9 529.7,116.8 C529.3,117.7 528.8,118.5 528.1,119.1 C527.4,119.7 526.7,120.2 525.8,120.6 C524.9,121 524,121.1 523,121.1 C521.9,121.1 521,120.9 520.1,120.5 C519.2,120.1 518.4,119.6 517.8,118.9 C517.2,118.2 516.7,117.5 516.3,116.6 C515.9,115.7 515.8,114.7 515.8,113.7 C515.8,112.6 516,111.6 516.4,110.7 C516.8,109.8 517.3,109 518,108.4 C518.7,107.8 519.4,107.3 520.3,106.9 C521.2,106.5 522.1,106.4 523.1,106.4 C524.1,106.4 525,106.6 525.9,106.9 C526.8,107.2 527.5,107.8 528.2,108.4 C528.9,109 529.4,109.8 529.8,110.7 C530.1,111.7 530.3,112.7 530.3,113.8 Z M528.8,113.8 C528.8,112.9 528.7,112.1 528.4,111.3 C528.1,110.5 527.7,109.9 527.2,109.4 C526.7,108.9 526.1,108.4 525.4,108.1 C524.7,107.8 524,107.7 523.2,107.7 C522.4,107.7 521.6,107.8 521,108.1 C520.3,108.4 519.7,108.8 519.2,109.4 C518.7,110 518.3,110.6 518,111.3 C517.7,112.1 517.6,112.9 517.6,113.8 C517.6,114.6 517.7,115.4 518,116.2 C518.3,117 518.6,117.6 519.1,118.1 C519.6,118.7 520.2,119.1 520.9,119.4 C521.6,119.7 522.4,119.9 523.3,119.9 C524.1,119.9 524.8,119.8 525.5,119.5 C526.2,119.2 526.8,118.8 527.3,118.2 C527.8,117.7 528.2,117 528.5,116.3 C528.6,115.5 528.8,114.7 528.8,113.8 Z M521.7,118 L520.4,118 L520.4,109.8 L523.5,109.8 C524.5,109.8 525.2,110 525.7,110.4 C526.2,110.8 526.5,111.4 526.5,112.2 C526.5,112.9 526.3,113.5 525.9,113.8 C525.5,114.1 525,114.3 524.4,114.4 L526.7,118 L525,118 L522.9,114.5 L521.6,114.5 L521.6,118 L521.7,118 Z M523.2,113.4 C523.4,113.4 523.7,113.4 523.9,113.4 C524.1,113.4 524.3,113.3 524.5,113.2 C524.7,113.1 524.8,113 524.9,112.8 C525,112.6 525.1,112.4 525.1,112.1 C525.1,111.9 525,111.7 524.9,111.5 C524.8,111.4 524.6,111.2 524.5,111.2 C524.4,111.2 524.1,111.1 523.9,111.1 C523.7,111.1 523.5,111.1 523.3,111.1 L521.7,111.1 L521.7,113.5 L523.2,113.5 L523.2,113.4 Z" class="logo-gray" fill-rule="nonzero"></path>
        </g>
    </g>
</svg>